<svg width="128" height="128" viewBox="0 0 128 128" fill="none" xmlns="http://www.w3.org/2000/svg">
<g id="basketball">
<path id="Ellipse 6" d="M63.787 126.996C98.7411 126.996 127.077 98.6601 127.077 63.706C127.077 28.7519 98.7411 0.416016 63.787 0.416016C28.8329 0.416016 0.496994 28.7519 0.496994 63.706C0.496994 98.6601 28.8329 126.996 63.787 126.996Z" fill="#EF8D37"/>
<path id="Line 25" d="M0.496994 63.706H127.076" stroke="#707070" stroke-width="7"/>
<path id="Path 6" d="M20.467 17.928C20.467 17.928 38.044 42.274 38.812 65.928C39.58 89.582 23.539 112.555 23.539 112.555" stroke="#707070" stroke-width="7"/>
<path id="Path 7" opacity="0.8" d="M107.043 17.928C107.043 17.928 89.467 42.274 88.699 65.928C87.931 89.582 103.972 112.555 103.972 112.555" stroke="#707070" stroke-width="7"/>
<path id="Line 26" d="M64.094 0.723022V127.302" stroke="#707070" stroke-width="7"/>
</g>
</svg>
