<svg width="633" height="297" viewBox="0 0 633 297" fill="none" xmlns="http://www.w3.org/2000/svg">
<g id="Group 29">
<g id="bathTube">
<path id="Path 8" d="M0.859009 80.392H630.246V225.72C630.246 238.9 614.497 253.104 588.076 261.168C588.076 261.168 456.969 296.325 320.707 296.325C184.445 296.325 43.029 261.168 43.029 261.168C21.148 254.457 4.27401 234.552 4.27401 221.368L0.859009 80.392Z" fill="#B8DBDB"/>
<g id="Path 9">
<path id="Vector" d="M316.61 155.016C127.177 155.016 10.859 112.785 10.859 82.5079C10.859 52.231 127.177 9.99998 316.61 9.99998C506.044 9.99998 622.362 52.231 622.362 82.5079C622.362 112.785 506.044 155.016 316.61 155.016Z" fill="#68709F"/>
<path id="Vector_2" d="M316.61 20C121.482 20 20.859 63.8143 20.859 82.5079C20.859 101.201 121.482 145.016 316.61 145.016C511.739 145.016 612.362 101.201 612.362 82.5079C612.362 63.8143 511.739 20 316.61 20ZM316.61 -1.52588e-05C490.995 -1.52588e-05 632.362 36.9401 632.362 82.5079C632.362 128.076 490.995 165.016 316.61 165.016C142.226 165.016 0.859009 128.076 0.859009 82.5079C0.859009 36.9401 142.226 -1.52588e-05 316.61 -1.52588e-05Z" fill="#D9F2F2"/>
</g>
<path id="Ellipse 8" d="M129.91 77.218C137.505 77.218 143.661 71.0615 143.661 63.467C143.661 55.8725 137.505 49.716 129.91 49.716C122.316 49.716 116.159 55.8725 116.159 63.467C116.159 71.0615 122.316 77.218 129.91 77.218Z" fill="#BBA3C4"/>
<path id="Ellipse 27" d="M418.687 113.183C426.282 113.183 432.438 107.026 432.438 99.432C432.438 91.8376 426.282 85.681 418.687 85.681C411.093 85.681 404.936 91.8376 404.936 99.432C404.936 107.026 411.093 113.183 418.687 113.183Z" fill="#BBA3C4"/>
<path id="Ellipse 9" d="M174.337 99.433C183.684 99.433 191.262 91.8554 191.262 82.508C191.262 73.1606 183.684 65.583 174.337 65.583C164.99 65.583 157.412 73.1606 157.412 82.508C157.412 91.8554 164.99 99.433 174.337 99.433Z" fill="#BBA3C4"/>
<path id="Ellipse 31" d="M549.854 88.855C559.201 88.855 566.779 81.2774 566.779 71.93C566.779 62.5826 559.201 55.005 549.854 55.005C540.507 55.005 532.929 62.5826 532.929 71.93C532.929 81.2774 540.507 88.855 549.854 88.855Z" fill="#BBA3C4"/>
<path id="Ellipse 18" d="M440.901 80.393C450.248 80.393 457.826 72.8154 457.826 63.468C457.826 54.1206 450.248 46.543 440.901 46.543C431.554 46.543 423.976 54.1206 423.976 63.468C423.976 72.8154 431.554 80.393 440.901 80.393Z" fill="#BBA3C4"/>
<path id="Ellipse 10" d="M271.654 82.507C284.506 82.507 294.925 72.0882 294.925 59.236C294.925 46.3838 284.506 35.965 271.654 35.965C258.802 35.965 248.383 46.3838 248.383 59.236C248.383 72.0882 258.802 82.507 271.654 82.507Z" fill="#BBA3C4"/>
<path id="Ellipse 11" d="M476.866 86.739C485.045 86.739 491.675 80.1088 491.675 71.93C491.675 63.7512 485.045 57.121 476.866 57.121C468.687 57.121 462.057 63.7512 462.057 71.93C462.057 80.1088 468.687 86.739 476.866 86.739Z" fill="#EDA4A4"/>
<path id="Ellipse 12" d="M230.93 92.029C240.57 92.029 248.384 84.2146 248.384 74.575C248.384 64.9354 240.57 57.121 230.93 57.121C221.29 57.121 213.476 64.9354 213.476 74.575C213.476 84.2146 221.29 92.029 230.93 92.029Z" fill="#EDA4A4"/>
<path id="Ellipse 29" d="M144.19 105.78C153.83 105.78 161.644 97.9656 161.644 88.326C161.644 78.6864 153.83 70.872 144.19 70.872C134.55 70.872 126.736 78.6864 126.736 88.326C126.736 97.9656 134.55 105.78 144.19 105.78Z" fill="#EDA4A4"/>
<path id="Ellipse 13" d="M394.887 96.259C403.358 96.259 410.225 89.392 410.225 80.921C410.225 72.4501 403.358 65.583 394.887 65.583C386.416 65.583 379.549 72.4501 379.549 80.921C379.549 89.392 386.416 96.259 394.887 96.259Z" fill="#EDA4A4"/>
<path id="Ellipse 33" d="M300.743 53.948C309.214 53.948 316.081 47.0809 316.081 38.61C316.081 30.139 309.214 23.272 300.743 23.272C292.272 23.272 285.405 30.139 285.405 38.61C285.405 47.0809 292.272 53.948 300.743 53.948Z" fill="#EDA4A4"/>
<path id="Ellipse 17" d="M325.073 100.49C338.802 100.49 349.931 89.3607 349.931 75.632C349.931 61.9033 338.802 50.774 325.073 50.774C311.344 50.774 300.215 61.9033 300.215 75.632C300.215 89.3607 311.344 100.49 325.073 100.49Z" fill="#EDA4A4"/>
<path id="Ellipse 16" d="M181.742 65.583C189.921 65.583 196.551 58.9528 196.551 50.774C196.551 42.5952 189.921 35.965 181.742 35.965C173.563 35.965 166.933 42.5952 166.933 50.774C166.933 58.9528 173.563 65.583 181.742 65.583Z" fill="#EDA4A4"/>
<path id="Ellipse 14" d="M279.059 110.01C287.238 110.01 293.868 103.38 293.868 95.201C293.868 87.0222 287.238 80.392 279.059 80.392C270.88 80.392 264.25 87.0222 264.25 95.201C264.25 103.38 270.88 110.01 279.059 110.01Z" fill="#EDA4A4"/>
<path id="Ellipse 15" d="M66.4421 86.739C74.6208 86.739 81.2511 80.1088 81.2511 71.93C81.2511 63.7512 74.6208 57.121 66.4421 57.121C58.2633 57.121 51.6331 63.7512 51.6331 71.93C51.6331 80.1088 58.2633 86.739 66.4421 86.739Z" fill="#EDA4A4"/>
<path id="Ellipse 19" d="M216.12 114.242C225.175 114.242 232.516 106.901 232.516 97.846C232.516 88.7908 225.175 81.45 216.12 81.45C207.065 81.45 199.724 88.7908 199.724 97.846C199.724 106.901 207.065 114.242 216.12 114.242Z" fill="white"/>
<path id="Ellipse 28" d="M215.063 63.468C224.118 63.468 231.459 56.1273 231.459 47.072C231.459 38.0168 224.118 30.676 215.063 30.676C206.008 30.676 198.667 38.0168 198.667 47.072C198.667 56.1273 206.008 63.468 215.063 63.468Z" fill="white"/>
<path id="Ellipse 21" d="M357.864 119.531C366.919 119.531 374.26 112.19 374.26 103.135C374.26 94.0798 366.919 86.739 357.864 86.739C348.809 86.739 341.468 94.0798 341.468 103.135C341.468 112.19 348.809 119.531 357.864 119.531Z" fill="white"/>
<path id="Ellipse 26" d="M408.639 74.046C417.694 74.046 425.035 66.7053 425.035 57.65C425.035 48.5948 417.694 41.254 408.639 41.254C399.584 41.254 392.243 48.5948 392.243 57.65C392.243 66.7053 399.584 74.046 408.639 74.046Z" fill="white"/>
<path id="Ellipse 25" d="M309.206 119.531C318.261 119.531 325.602 112.19 325.602 103.135C325.602 94.0798 318.261 86.739 309.206 86.739C300.151 86.739 292.81 94.0798 292.81 103.135C292.81 112.19 300.151 119.531 309.206 119.531Z" fill="white"/>
<path id="Ellipse 22" d="M457.297 108.953C466.352 108.953 473.693 101.612 473.693 92.557C473.693 83.5017 466.352 76.161 457.297 76.161C448.242 76.161 440.901 83.5017 440.901 92.557C440.901 101.612 448.242 108.953 457.297 108.953Z" fill="white"/>
<path id="Ellipse 23" d="M523.938 86.739C532.993 86.739 540.334 79.3983 540.334 70.343C540.334 61.2878 532.993 53.947 523.938 53.947C514.883 53.947 507.542 61.2878 507.542 70.343C507.542 79.3983 514.883 86.739 523.938 86.739Z" fill="white"/>
<path id="Ellipse 24" d="M358.922 65.584C367.977 65.584 375.318 58.2433 375.318 49.188C375.318 40.1327 367.977 32.792 358.922 32.792C349.867 32.792 342.526 40.1327 342.526 49.188C342.526 58.2433 349.867 65.584 358.922 65.584Z" fill="white"/>
<path id="Ellipse 30" d="M495.378 102.606C504.433 102.606 511.774 95.2653 511.774 86.21C511.774 77.1548 504.433 69.814 495.378 69.814C486.323 69.814 478.982 77.1548 478.982 86.21C478.982 95.2653 486.323 102.606 495.378 102.606Z" fill="white"/>
<path id="Ellipse 20" d="M113.514 99.433C122.569 99.433 129.91 92.0923 129.91 83.037C129.91 73.9817 122.569 66.641 113.514 66.641C104.459 66.641 97.118 73.9817 97.118 83.037C97.118 92.0923 104.459 99.433 113.514 99.433Z" fill="white"/>
<path id="Ellipse 32" d="M513.889 100.491C523.236 100.491 530.814 92.9134 530.814 83.566C530.814 74.2186 523.236 66.641 513.889 66.641C504.542 66.641 496.964 74.2186 496.964 83.566C496.964 92.9134 504.542 100.491 513.889 100.491Z" fill="#BBA3C4"/>
</g>
</g>
</svg>
