<svg width="111" height="54" viewBox="0 0 111 54" fill="none" xmlns="http://www.w3.org/2000/svg">
<path d="M91 0H20C8.9543 0 0 8.9543 0 20V34C0 45.0457 8.9543 54 20 54H91C102.046 54 111 45.0457 111 34V20C111 8.9543 102.046 0 91 0Z" fill="#BC2121"/>
<path d="M38.48 12.84V15.39H54.38V12.84H38.48ZM37.97 20.07V22.62H54.95V20.07H37.97ZM37.85 31.32V33.87H55.01V31.32H37.85ZM39.17 16.47V18.9H53.93V16.47H39.17ZM41.75 10.53V21.21H44.87V10.53H41.75ZM47.96 10.53V21.21H51.14V10.53H47.96ZM44.84 21.24V32.01H47.96V21.24H44.84ZM50.33 23.73V35.4C50.33 35.76 50.21 35.85 49.82 35.88C49.46 35.88 48.17 35.88 47 35.82C47.39 36.63 47.78 37.86 47.93 38.7C49.88 38.7 51.29 38.7 52.31 38.22C53.3 37.74 53.6 36.93 53.6 35.43V23.73H50.33ZM39.44 23.73V38.76H42.62V26.28H51.71V23.73H39.44ZM41.03 27.63V29.85H51.71V27.63H41.03ZM29.69 31.29C29.12 33.42 27.95 35.58 26.57 36.99C27.32 37.41 28.64 38.28 29.27 38.76C30.68 37.14 32.06 34.56 32.84 32.04L29.69 31.29ZM33.23 32.37C34.19 33.96 35.27 36.09 35.72 37.44L38.48 36.12C38 34.8 36.89 32.76 35.87 31.23L33.23 32.37ZM31.31 19.95H34.28V22.74H31.31V19.95ZM31.31 25.38H34.28V28.23H31.31V25.38ZM31.31 14.52H34.28V17.28H31.31V14.52ZM28.25 11.64V31.08H37.43V11.64H28.25ZM75.74 14.46H79.52V16.5H75.74V14.46ZM69.08 14.46H72.74V16.5H69.08V14.46ZM62.48 14.46H66.08V16.5H62.48V14.46ZM59.15 11.79V19.2H83V11.79H59.15ZM64.4 26.31H77.6V27.75H64.4V26.31ZM64.4 29.91H77.6V31.38H64.4V29.91ZM64.4 22.71H77.6V24.18H64.4V22.71ZM60.8 20.43V33.66H81.38V20.43H60.8ZM72.68 35.25C75.95 36.33 79.28 37.77 81.14 38.73L85.07 36.93C82.76 35.91 78.89 34.47 75.53 33.42L72.68 35.25ZM66.02 33.36C63.92 34.53 60.29 35.61 57.02 36.18C57.83 36.81 59.09 38.1 59.69 38.82C62.81 37.98 66.8 36.48 69.32 34.86L66.02 33.36Z" fill="#FAF3E2"/>
</svg>
