<svg width="362" height="469" viewBox="0 0 362 469" fill="none" xmlns="http://www.w3.org/2000/svg">
<path d="M145.734 419.348V447.561" stroke="#574809" stroke-width="7"/>
<path d="M224.001 419.348V447.561" stroke="#574809" stroke-width="7"/>
<path d="M143.914 445.741L126.622 459.392" stroke="#574809" stroke-width="7"/>
<path d="M222.181 445.741L204.889 459.392" stroke="#574809" stroke-width="7"/>
<path d="M145.734 441.873V468.493" stroke="#574809" stroke-width="7"/>
<path d="M224.001 441.873V468.493" stroke="#574809" stroke-width="7"/>
<path d="M147.554 445.741L164.846 457.572" stroke="#574809" stroke-width="7"/>
<path d="M225.821 445.741L243.113 457.572" stroke="#574809" stroke-width="7"/>
<path d="M181.682 281.469C261.6 281.469 326.386 229.11 326.386 164.523C326.386 99.9352 261.6 47.5767 181.682 47.5767C101.764 47.5767 36.9782 99.9352 36.9782 164.523C36.9782 229.11 101.764 281.469 181.682 281.469Z" fill="#FFD230"/>
<path d="M182.137 427.085C271.856 427.085 344.588 368.41 344.588 296.032C344.588 223.653 271.856 164.979 182.137 164.979C92.418 164.979 19.6862 223.653 19.6862 296.032C19.6862 368.41 92.418 427.085 182.137 427.085Z" fill="#FFD230"/>
<path d="M181.682 127.665L225.367 167.709H137.998L181.682 127.665Z" fill="#FF7700"/>
<path d="M118.886 147.686C125.923 147.686 131.627 141.778 131.627 134.49C131.627 127.202 125.923 121.294 118.886 121.294C111.85 121.294 106.145 127.202 106.145 134.49C106.145 141.778 111.85 147.686 118.886 147.686Z" fill="black"/>
<path d="M249.028 147.686C256.065 147.686 261.769 141.778 261.769 134.49C261.769 127.202 256.065 121.294 249.028 121.294C241.992 121.294 236.287 127.202 236.287 134.49C236.287 141.778 241.992 147.686 249.028 147.686Z" fill="black"/>
<path d="M119.486 360.12C119.486 360.12 81.9909 362.328 53.1047 347.61C46.2363 344.11 40.1245 339.292 35.1182 333.43C30.112 327.568 26.3093 320.778 23.9273 313.446C21.5453 306.115 20.6306 298.386 21.2355 290.702C21.8404 283.017 23.9531 275.526 27.4528 268.658C42.1714 239.772 75.2106 225.428 75.2106 225.428C75.2106 225.428 88.4947 271.296 94.9077 291.034C101.321 310.771 119.486 360.12 119.486 360.12Z" fill="#FF7F50"/>
<path d="M239.061 351.154C239.061 351.154 276.008 357.915 306.472 346.827C313.716 344.19 320.37 340.153 326.053 334.945C331.736 329.737 336.338 323.461 339.596 316.474C342.854 309.488 344.704 301.928 345.04 294.227C345.376 286.526 344.192 278.834 341.556 271.59C330.468 241.125 299.421 222.862 299.421 222.862C299.421 222.862 280.646 266.769 271.875 285.578C263.104 304.387 239.061 351.154 239.061 351.154Z" fill="#FF7F50"/>
<path d="M269.043 122.672C267.485 121.488 266.081 120.113 264.864 118.581C263.472 116.841 262.258 114.966 261.24 112.984C260.112 110.799 259.186 108.516 258.472 106.163C258 104.625 257.618 103.06 257.328 101.477C257.054 99.9811 256.871 98.4696 256.779 96.9513C256.693 95.5343 256.7 94.1132 256.799 92.6971C256.865 91.7988 256.971 90.9229 257.115 90.0789C256.497 90.6699 255.829 91.248 255.12 91.8041C254.002 92.6782 252.827 93.4782 251.604 94.199C250.294 94.9716 248.938 95.6647 247.545 96.2743C246.071 96.9186 244.562 97.477 243.023 97.9465C240.617 98.6863 238.147 99.2001 235.645 99.4812C233.386 99.7402 231.107 99.7653 228.842 99.556C226.862 99.381 224.914 98.9481 223.046 98.2681C221.447 97.697 219.97 96.8316 218.69 95.7167L234.285 85.9376L216.087 87.1776C216.529 85.5392 217.272 83.9975 218.279 82.6318C219.448 81.0267 220.822 79.581 222.366 78.331C224.125 76.8944 226.028 75.6431 228.044 74.5967C230.272 73.4337 232.605 72.4809 235.01 71.7505C236.549 71.2787 238.113 70.8966 239.696 70.6062C241.192 70.3326 242.704 70.1494 244.222 70.0576C245.426 69.9866 246.633 69.9816 247.837 70.0426C247.856 69.9769 247.875 69.9095 247.896 69.8406C246.81 69.373 245.756 68.8331 244.742 68.2243C243.525 67.4931 242.358 66.683 241.247 65.7992C240.057 64.8519 238.924 63.8336 237.856 62.7501C236.725 61.604 235.661 60.3932 234.671 59.1237C233.176 57.2167 231.856 55.1797 230.724 53.0373C229.693 51.095 228.855 49.0561 228.222 46.9501C227.659 45.096 227.325 43.1803 227.225 41.2452C227.13 39.5817 227.32 37.9143 227.785 36.3144L244.082 48.5574L235.508 30.0766C237.183 29.9702 238.863 30.1605 240.472 30.6385C242.351 31.1855 244.154 31.9654 245.84 32.96C247.762 34.0855 249.566 35.4004 251.227 36.8851C253.063 38.5203 254.746 40.319 256.256 42.259C257.248 43.5278 258.165 44.8533 259.003 46.2285C259.795 47.529 260.507 48.876 261.137 50.2623C261.44 50.9307 261.718 51.6005 261.972 52.2716C262.075 51.7756 262.192 51.2775 262.32 50.7774C262.7 49.3044 263.168 47.8557 263.722 46.439C264.309 44.9393 264.982 43.475 265.739 42.0535C266.873 39.9128 268.197 37.8779 269.693 35.9731C271.05 34.2412 272.572 32.6466 274.24 31.2124C275.706 29.9434 277.321 28.8578 279.049 27.9796C280.53 27.217 282.13 26.7123 283.781 26.487L279.225 46.355L292.615 31.0043C293.393 32.4915 293.903 34.1044 294.12 35.7688C294.384 37.7076 294.405 39.6718 294.182 41.6157C293.936 43.8301 293.468 46.0144 292.787 48.1358C292.04 50.478 291.082 52.7475 289.924 54.9163C289.168 56.3386 288.331 57.7157 287.415 59.0408C286.55 60.292 285.611 61.4899 284.602 62.628C284.529 62.7097 284.457 62.7907 284.384 62.8712C284.897 62.7589 285.418 62.6585 285.947 62.5701C287.447 62.3185 288.961 62.1575 290.481 62.088C292.09 62.014 293.702 62.0337 295.308 62.1469C297.725 62.3123 300.123 62.6937 302.472 63.2866C304.606 63.8211 306.682 64.5639 308.671 65.5042C310.426 66.3264 312.074 67.3592 313.579 68.5799C314.878 69.6226 315.99 70.879 316.868 72.2952L296.865 76.2138L316.331 82.201C315.289 83.5167 314.023 84.6381 312.592 85.5135C310.929 86.5452 309.144 87.3649 307.278 87.9535C305.155 88.6296 302.969 89.0914 300.754 89.3321C298.311 89.6013 295.849 89.6479 293.397 89.4712C291.791 89.3594 290.192 89.1543 288.61 88.8569C287.114 88.5772 285.637 88.2075 284.186 87.7499C282.832 87.3229 281.508 86.8077 280.221 86.2076C279.23 85.744 278.268 85.2198 277.34 84.638L277.335 84.6477C277.739 85.0974 278.135 85.5687 278.522 86.0615C279.396 87.18 280.196 88.3545 280.917 89.5776C281.69 90.8879 282.383 92.2435 282.992 93.6372C283.636 95.1118 284.194 96.6227 284.663 98.162C285.375 100.478 285.878 102.853 286.166 105.258C286.432 107.442 286.483 109.646 286.318 111.84C286.179 113.772 285.806 115.681 285.206 117.523C284.698 119.11 283.923 120.598 282.916 121.925L272.09 104.653L273.476 124.975C272.665 124.732 271.882 124.408 271.136 124.007C270.406 123.616 269.706 123.169 269.043 122.672Z" fill="#FFB8B8"/>
<path d="M261.453 89.6465C270.392 92.2096 279.716 87.0413 282.279 78.1027C284.842 69.1641 279.673 59.8401 270.735 57.277C261.796 54.7139 252.472 59.8823 249.909 68.8209C247.346 77.7595 252.514 87.0834 261.453 89.6465Z" fill="white"/>
<path opacity="0.57" d="M253.125 194.328C268.204 194.328 280.428 187.809 280.428 179.767C280.428 171.725 268.204 165.206 253.125 165.206C238.046 165.206 225.822 171.725 225.822 179.767C225.822 187.809 238.046 194.328 253.125 194.328Z" fill="#BC0D2B" fill-opacity="0.22"/>
<path opacity="0.57" d="M106.146 194.328C121.225 194.328 133.449 187.809 133.449 179.767C133.449 171.725 121.225 165.206 106.146 165.206C91.067 165.206 78.843 171.725 78.843 179.767C78.843 187.809 91.067 194.328 106.146 194.328Z" fill="#BC0D2B" fill-opacity="0.22"/>
</svg>
