<svg width="91" height="38" viewBox="0 0 91 38" fill="none" xmlns="http://www.w3.org/2000/svg">
<path d="M19.416 37.962C29.8989 37.962 38.397 29.4639 38.397 18.981C38.397 8.49808 29.8989 0 19.416 0C8.93308 0 0.434998 8.49808 0.434998 18.981C0.434998 29.4639 8.93308 37.962 19.416 37.962Z" fill="#DBDBDB"/>
<path d="M19.416 34.962C28.2421 34.962 35.397 27.8071 35.397 18.981C35.397 10.1549 28.2421 3 19.416 3C10.5899 3 3.435 10.1549 3.435 18.981C3.435 27.8071 10.5899 34.962 19.416 34.962Z" stroke="#707070" stroke-width="6"/>
<path d="M71.988 37.962C82.3704 37.962 90.787 29.4639 90.787 18.981C90.787 8.49808 82.3704 0 71.988 0C61.6056 0 53.189 8.49808 53.189 18.981C53.189 29.4639 61.6056 37.962 71.988 37.962Z" fill="#DBDBDB"/>
<path d="M71.988 34.962C80.7136 34.962 87.787 27.8071 87.787 18.981C87.787 10.1549 80.7136 3 71.988 3C63.2625 3 56.189 10.1549 56.189 18.981C56.189 27.8071 63.2625 34.962 71.988 34.962Z" stroke="#707070" stroke-width="6"/>
<path d="M36.451 18.981C36.451 18.981 41.051 15.507 45.251 15.507C49.451 15.507 53.192 18.981 53.192 18.981" stroke="#707070" stroke-width="6" stroke-linecap="round"/>
</svg>
