<svg width="593" height="208" viewBox="0 0 593 208" fill="none" xmlns="http://www.w3.org/2000/svg">
<path d="M1.72198 4.318C1.72198 4.318 108.754 140.249 262.16 145.685C453.205 144.336 591.222 2 591.222 2" stroke="#707070" stroke-width="4"/>
<path d="M35.288 41.248V70.618" stroke="#707070" stroke-width="4"/>
<path d="M41.732 60.525H29.37V79.068H41.732V60.525Z" fill="#363636"/>
<path d="M35.55 106.436C27.656 106.436 21.257 98.307 21.257 88.28C21.257 83.096 22.283 76.411 25.177 72.923C27.589 70.011 31.738 70.123 35.551 70.123C39.072 70.123 41.989 68.384 45.562 72.923C49.135 77.462 49.843 82.725 49.843 88.28C49.843 98.307 43.443 106.436 35.55 106.436Z" fill="#FFD230"/>
<path d="M100.321 93.758V123.128" stroke="#707070" stroke-width="4"/>
<path d="M106.502 113.126H94.14V131.669H106.502V113.126Z" fill="#363636"/>
<path d="M100.321 159.037C92.427 159.037 86.028 150.908 86.028 140.881C86.028 135.697 87.054 129.012 89.948 125.524C92.36 122.612 96.509 122.724 100.322 122.724C103.843 122.724 106.76 120.985 110.333 125.524C113.906 130.063 114.614 135.326 114.614 140.881C114.614 150.908 108.214 159.037 100.321 159.037Z" fill="#FFD230"/>
<path d="M173.746 126.846V154.118" stroke="#707070" stroke-width="4"/>
<path d="M179.808 145.318H167.446V163.861H179.808V145.318Z" fill="#363636"/>
<path d="M173.627 191.229C165.733 191.229 159.334 183.1 159.334 173.073C159.334 167.889 160.36 161.204 163.254 157.716C165.666 154.804 169.815 154.916 173.628 154.916C177.149 154.916 180.066 153.177 183.639 157.716C187.212 162.255 187.92 167.518 187.92 173.073C187.92 183.1 181.52 191.229 173.627 191.229Z" fill="#FFD230"/>
<path d="M255.562 143.629V170.901" stroke="#707070" stroke-width="4"/>
<path d="M261.704 161.543H249.342V180.086H261.704V161.543Z" fill="#363636"/>
<path d="M255.523 207.454C247.629 207.454 241.23 199.325 241.23 189.298C241.23 184.114 242.256 177.429 245.15 173.941C247.562 171.029 251.711 171.141 255.524 171.141C259.045 171.141 261.962 169.402 265.535 173.941C269.108 178.48 269.816 183.743 269.816 189.298C269.816 199.325 263.416 207.454 255.523 207.454Z" fill="#FFD230"/>
<path d="M331.085 139.434V166.706" stroke="#707070" stroke-width="4"/>
<path d="M337.266 158.453H324.904V176.996H337.266V158.453Z" fill="#363636"/>
<path d="M331.085 204.364C323.191 204.364 316.792 196.235 316.792 186.208C316.792 181.024 317.818 174.339 320.712 170.851C323.124 167.939 327.273 168.051 331.086 168.051C334.607 168.051 337.524 166.312 341.097 170.851C344.67 175.39 345.378 180.653 345.378 186.208C345.378 196.235 338.978 204.364 331.085 204.364Z" fill="#FFD230"/>
<path d="M407.339 120.431L408.112 148.245" stroke="#707070" stroke-width="4"/>
<path d="M414.679 138.974H402.317V157.517H414.679V138.974Z" fill="#363636"/>
<path d="M408.498 184.885C400.604 184.885 394.205 176.756 394.205 166.729C394.205 161.545 395.231 154.86 398.125 151.372C400.537 148.46 404.686 148.572 408.499 148.572C412.02 148.572 414.937 146.833 418.51 151.372C422.083 155.911 422.791 161.174 422.791 166.729C422.791 176.756 416.391 184.885 408.498 184.885Z" fill="#FFD230"/>
<path d="M480.737 83.346L481.51 111.16" stroke="#707070" stroke-width="4"/>
<path d="M488.077 101.888H475.715V120.431H488.077V101.888Z" fill="#363636"/>
<path d="M481.896 147.799C474.002 147.799 467.603 139.67 467.603 129.643C467.603 124.459 468.629 117.774 471.523 114.286C473.935 111.374 478.084 111.486 481.897 111.486C485.418 111.486 488.335 109.747 491.908 114.286C495.481 118.825 496.189 124.088 496.189 129.643C496.189 139.67 489.789 147.799 481.896 147.799Z" fill="#FFD230"/>
<path d="M557.997 32.354L558.77 60.168" stroke="#707070" stroke-width="4"/>
<path d="M565.337 50.896H552.975V69.439H565.337V50.896Z" fill="#363636"/>
<path d="M559.156 96.808C551.262 96.808 544.863 88.679 544.863 78.652C544.863 73.468 545.889 66.783 548.783 63.295C551.195 60.383 555.344 60.495 559.157 60.495C562.678 60.495 565.595 58.756 569.168 63.295C572.741 67.834 573.449 73.097 573.449 78.652C573.449 88.679 567.049 96.808 559.156 96.808Z" fill="#FFD230"/>
</svg>
