<svg width="316" height="374" viewBox="0 0 316 374" fill="none" xmlns="http://www.w3.org/2000/svg">
<g filter="url(#filter0_d_9_376)">
<path d="M188.237 323.272C134.443 323.272 90.6791 266.596 90.6791 196.931C90.6791 127.266 134.443 70.5901 188.237 70.5901C242.03 70.5901 285.795 127.266 285.795 196.931C285.795 266.596 242.03 323.272 188.237 323.272Z" fill="#66E5FF" fill-opacity="0.86"/>
<path d="M188.237 80.5901C139.957 80.5901 100.679 132.78 100.679 196.931C100.679 261.082 139.957 313.272 188.237 313.272C236.516 313.272 275.795 261.082 275.795 196.931C275.795 132.78 236.516 80.5901 188.237 80.5901ZM188.237 60.5901C247.639 60.5901 295.795 121.632 295.795 196.931C295.795 272.23 247.639 333.272 188.237 333.272C128.834 333.272 80.6791 272.23 80.6791 196.931C80.6791 121.632 128.834 60.5901 188.237 60.5901Z" fill="#3E88A8"/>
</g>
<path d="M188.237 323.268C134.443 323.268 90.679 266.592 90.679 196.927C90.679 127.262 134.443 70.586 188.237 70.586C242.03 70.586 285.795 127.262 285.795 196.927C285.795 266.592 242.03 323.268 188.237 323.268Z" fill="#66E5FF" fill-opacity="0.86"/>
<path d="M188.237 80.5859C139.957 80.5859 100.679 132.776 100.679 196.927C100.679 261.077 139.957 313.268 188.237 313.268C236.516 313.268 275.795 261.077 275.795 196.927C275.795 132.776 236.516 80.5859 188.237 80.5859ZM188.237 60.5859C247.639 60.5859 295.795 121.628 295.795 196.927C295.795 272.226 247.639 333.268 188.237 333.268C128.834 333.268 80.679 272.226 80.679 196.927C80.679 121.628 128.834 60.5859 188.237 60.5859Z" fill="#66E5FF" fill-opacity="0.86"/>
<g filter="url(#filter1_d_9_376)">
<path d="M188.237 323.272C134.443 323.272 90.6791 266.596 90.6791 196.931C90.6791 127.266 134.443 70.5901 188.237 70.5901C242.03 70.5901 285.795 127.266 285.795 196.931C285.795 266.596 242.03 323.272 188.237 323.272Z" fill="white"/>
<path d="M188.237 80.5901C139.957 80.5901 100.679 132.78 100.679 196.931C100.679 261.082 139.957 313.272 188.237 313.272C236.516 313.272 275.795 261.082 275.795 196.931C275.795 132.78 236.516 80.5901 188.237 80.5901ZM188.237 60.5901C247.639 60.5901 295.795 121.632 295.795 196.931C295.795 272.23 247.639 333.272 188.237 333.272C128.834 333.272 80.6791 272.23 80.6791 196.931C80.6791 121.632 128.834 60.5901 188.237 60.5901Z" fill="white"/>
</g>
<path d="M188.237 80.5859C139.957 80.5859 100.679 132.776 100.679 196.927C100.679 261.077 139.957 313.268 188.237 313.268C236.516 313.268 275.795 261.077 275.795 196.927C275.795 132.776 236.516 80.5859 188.237 80.5859ZM188.237 60.5859C247.639 60.5859 295.795 121.628 295.795 196.927C295.795 272.226 247.639 333.268 188.237 333.268C128.834 333.268 80.679 272.226 80.679 196.927C80.679 121.628 128.834 60.5859 188.237 60.5859Z" fill="#3E88A8"/>
<g filter="url(#filter2_d_9_376)">
<path opacity="0.25" d="M155.415 88.6401C155.415 88.6401 131.482 98.8511 118.715 123.526C105.948 148.201 98.859 185.594 98.859 185.594" fill="white"/>
</g>
<g filter="url(#filter3_d_9_376)">
<path opacity="0.25" d="M111.967 189.497C111.967 189.497 126.359 182.738 139.032 160.48C151.704 138.223 164.907 102.885 164.907 102.885" fill="white"/>
</g>
<defs>
<filter id="filter0_d_9_376" x="74.6791" y="57.5901" width="227.116" height="284.682" filterUnits="userSpaceOnUse" color-interpolation-filters="sRGB">
<feFlood flood-opacity="0" result="BackgroundImageFix"/>
<feColorMatrix in="SourceAlpha" type="matrix" values="0 0 0 0 0 0 0 0 0 0 0 0 0 0 0 0 0 0 127 0" result="hardAlpha"/>
<feOffset dy="3"/>
<feGaussianBlur stdDeviation="3"/>
<feColorMatrix type="matrix" values="0 0 0 0 0 0 0 0 0 0 0 0 0 0 0 0 0 0 0.259 0"/>
<feBlend mode="normal" in2="BackgroundImageFix" result="effect1_dropShadow_9_376"/>
<feBlend mode="normal" in="SourceGraphic" in2="effect1_dropShadow_9_376" result="shape"/>
</filter>
<filter id="filter1_d_9_376" x="0.679077" y="0.590057" width="315.116" height="372.682" filterUnits="userSpaceOnUse" color-interpolation-filters="sRGB">
<feFlood flood-opacity="0" result="BackgroundImageFix"/>
<feColorMatrix in="SourceAlpha" type="matrix" values="0 0 0 0 0 0 0 0 0 0 0 0 0 0 0 0 0 0 127 0" result="hardAlpha"/>
<feOffset dx="-30" dy="-10"/>
<feGaussianBlur stdDeviation="25"/>
<feColorMatrix type="matrix" values="0 0 0 0 0.0745098 0 0 0 0 0.858824 0 0 0 0 0.886275 0 0 0 0.3 0"/>
<feBlend mode="normal" in2="BackgroundImageFix" result="effect1_dropShadow_9_376"/>
<feBlend mode="normal" in="SourceGraphic" in2="effect1_dropShadow_9_376" result="shape"/>
</filter>
<filter id="filter2_d_9_376" x="92.859" y="85.6401" width="68.556" height="108.954" filterUnits="userSpaceOnUse" color-interpolation-filters="sRGB">
<feFlood flood-opacity="0" result="BackgroundImageFix"/>
<feColorMatrix in="SourceAlpha" type="matrix" values="0 0 0 0 0 0 0 0 0 0 0 0 0 0 0 0 0 0 127 0" result="hardAlpha"/>
<feOffset dy="3"/>
<feGaussianBlur stdDeviation="3"/>
<feColorMatrix type="matrix" values="0 0 0 0 0 0 0 0 0 0 0 0 0 0 0 0 0 0 0.259 0"/>
<feBlend mode="normal" in2="BackgroundImageFix" result="effect1_dropShadow_9_376"/>
<feBlend mode="normal" in="SourceGraphic" in2="effect1_dropShadow_9_376" result="shape"/>
</filter>
<filter id="filter3_d_9_376" x="105.967" y="99.8846" width="64.9403" height="98.612" filterUnits="userSpaceOnUse" color-interpolation-filters="sRGB">
<feFlood flood-opacity="0" result="BackgroundImageFix"/>
<feColorMatrix in="SourceAlpha" type="matrix" values="0 0 0 0 0 0 0 0 0 0 0 0 0 0 0 0 0 0 127 0" result="hardAlpha"/>
<feOffset dy="3"/>
<feGaussianBlur stdDeviation="3"/>
<feColorMatrix type="matrix" values="0 0 0 0 0 0 0 0 0 0 0 0 0 0 0 0 0 0 0.259 0"/>
<feBlend mode="normal" in2="BackgroundImageFix" result="effect1_dropShadow_9_376"/>
<feBlend mode="normal" in="SourceGraphic" in2="effect1_dropShadow_9_376" result="shape"/>
</filter>
</defs>
</svg>
