<svg xmlns="http://www.w3.org/2000/svg" width="36" height="35.985" viewBox="0 0 36 35.985">
  <path id="Icon_simple-cashapp" data-name="Icon simple-cashapp" d="M35.385,5.2A7.65,7.65,0,0,0,30.81.63C28.845,0,27.06,0,23.43,0H12.54C8.94,0,7.125,0,5.19.6A7.65,7.65,0,0,0,.615,5.19C0,7.14,0,8.94,0,12.54v10.9c0,3.615,0,5.4.6,7.35A7.65,7.65,0,0,0,5.175,35.37c1.95.615,3.75.615,7.35.615h10.92c3.615,0,5.415,0,7.35-.6a7.65,7.65,0,0,0,4.59-4.59c.615-1.95.615-3.75.615-7.35V12.57c0-3.615,0-5.415-.615-7.365ZM26.13,12.15l-1.4,1.4a.75.75,0,0,1-1,.015,7.5,7.5,0,0,0-4.83-1.77c-1.455,0-2.91.48-2.91,1.815s1.56,1.8,3.36,2.475c3.15,1.05,5.76,2.37,5.76,5.46,0,3.36-2.61,5.67-6.87,5.925l-.39,1.8a.735.735,0,0,1-.72.585H14.445l-.135-.015a.75.75,0,0,1-.57-.885l.42-1.905A9.81,9.81,0,0,1,9.84,24.69v-.015a.72.72,0,0,1,0-1.02l1.5-1.455a.735.735,0,0,1,1.005,0,7.254,7.254,0,0,0,5.085,1.98c1.95,0,3.255-.825,3.255-2.13s-1.32-1.65-3.81-2.58c-2.64-.945-5.145-2.28-5.145-5.4,0-3.63,3.015-5.4,6.585-5.565L18.69,6.66a.72.72,0,0,1,.72-.57h2.67l.15.015a.718.718,0,0,1,.555.855L22.38,9.015A11.257,11.257,0,0,1,26.1,11.1l.03.03a.715.715,0,0,1,0,1.02Z" fill="#dec646"/>
</svg>
