<svg width="183" height="234" viewBox="0 0 183 234" fill="none" xmlns="http://www.w3.org/2000/svg">
<path d="M4.54297 42.771L89.923 6.87698" stroke="#EA9C42" stroke-width="6" stroke-linecap="round"/>
<path d="M178.806 41.865L89.8711 7.05399" stroke="#EA9C42" stroke-width="6" stroke-linecap="round"/>
<path d="M182.352 233.499H0.915039V39.723H182.352V233.499Z" fill="#763505"/>
<path d="M1.41504 40.223V232.999H181.852V40.223H1.41504ZM0.415039 39.223H182.852V233.999H0.415039V39.223Z" fill="#707070"/>
<path d="M170.013 221.16H12.3721V52.943H170.013V221.16Z" fill="#EDDBBE"/>
<path d="M12.8721 53.443V220.66H169.513V53.443H12.8721ZM11.8721 52.443H170.513V221.66H11.8721V52.443Z" fill="#707070"/>
<path d="M90.415 13.999C93.7287 13.999 96.415 10.865 96.415 6.99899C96.415 3.133 93.7287 -0.00100708 90.415 -0.00100708C87.1013 -0.00100708 84.415 3.133 84.415 6.99899C84.415 10.865 87.1013 13.999 90.415 13.999Z" fill="#400202"/>
<path d="M79.8309 194.634V204.59" stroke="#574809" stroke-width="4"/>
<path d="M107.451 194.634V204.59" stroke="#574809" stroke-width="4"/>
<path d="M79.1889 203.948L73.0869 208.765" stroke="#574809" stroke-width="4"/>
<path d="M106.809 203.948L100.707 208.765" stroke="#574809" stroke-width="4"/>
<path d="M79.8309 202.583V211.977" stroke="#574809" stroke-width="4"/>
<path d="M107.451 202.583V211.977" stroke="#574809" stroke-width="4"/>
<path d="M80.4729 203.948L86.5749 208.123" stroke="#574809" stroke-width="4"/>
<path d="M108.093 203.948L114.195 208.123" stroke="#574809" stroke-width="4"/>
<path d="M92.517 145.978C120.719 145.978 143.582 127.501 143.582 104.709C143.582 81.9168 120.719 63.44 92.517 63.44C64.3146 63.44 41.452 81.9168 41.452 104.709C41.452 127.501 64.3146 145.978 92.517 145.978Z" fill="#FFD230"/>
<path d="M92.677 197.364C124.338 197.364 150.004 176.659 150.004 151.117C150.004 125.575 124.338 104.87 92.677 104.87C61.0161 104.87 35.35 125.575 35.35 151.117C35.35 176.659 61.0161 197.364 92.677 197.364Z" fill="#FFD230"/>
<path d="M92.517 91.702L107.932 105.833H77.101L92.517 91.702Z" fill="#FF7700"/>
<path d="M70.357 98.768C72.84 98.768 74.853 96.683 74.853 94.111C74.853 91.539 72.84 89.454 70.357 89.454C67.8739 89.454 65.861 91.539 65.861 94.111C65.861 96.683 67.8739 98.768 70.357 98.768Z" fill="black"/>
<path d="M116.283 98.768C118.766 98.768 120.779 96.683 120.779 94.111C120.779 91.539 118.766 89.454 116.283 89.454C113.8 89.454 111.787 91.539 111.787 94.111C111.787 96.683 113.8 98.768 116.283 98.768Z" fill="black"/>
<path d="M59.409 128.975C59.409 128.975 62.6913 141.814 59.5339 152.808C58.0176 158.087 54.4664 162.548 49.6613 165.209C44.8562 167.871 39.1909 168.514 33.9113 166.998C22.9137 163.84 15.729 153.36 15.729 153.36C15.729 153.36 30.7244 145.677 37.1288 142.133C43.5331 138.589 59.409 128.975 59.409 128.975Z" fill="#574809"/>
<path d="M123.849 128.963C123.849 128.963 120.561 141.803 123.714 152.799C125.229 158.08 128.779 162.543 133.583 165.207C138.388 167.87 144.054 168.516 149.335 167.003C160.336 163.848 167.526 153.369 167.526 153.369C167.526 153.369 152.531 145.68 146.125 142.124C139.719 138.568 123.849 128.963 123.849 128.963Z" fill="#574804"/>
</svg>
