<svg width="386" height="191" viewBox="0 0 386 191" fill="none" xmlns="http://www.w3.org/2000/svg">
<g id="weight">
<g id="Group 28">
<g id="Group">
<path id="Rectangle 84" d="M282 98H105V126H282V98Z" fill="#707070"/>
<g id="Group_2" filter="url(#filter0_d_9_449)">
<path id="Rectangle 84_2" d="M282 98.002H105V126.002H282V98.002Z" fill="#707070"/>
</g>
</g>
<g id="Group_3">
<path id="Rectangle 85" d="M105 52C105 43.1634 97.8366 36 89 36C80.1634 36 73 43.1634 73 52V174C73 182.837 80.1634 190 89 190C97.8366 190 105 182.837 105 174V52Z" fill="#707070"/>
<g id="Group_4" filter="url(#filter1_d_9_449)">
<path id="Rectangle 85_2" d="M105 52.002C105 43.1655 97.8366 36.002 89 36.002C80.1634 36.002 73 43.1655 73 52.002V174.002C73 182.839 80.1634 190.002 89 190.002C97.8366 190.002 105 182.839 105 174.002V52.002Z" fill="#707070"/>
</g>
</g>
<g id="Group_5">
<path id="Rectangle 86" d="M314 52C314 43.1634 306.837 36 298 36C289.163 36 282 43.1634 282 52V174C282 182.837 289.163 190 298 190C306.837 190 314 182.837 314 174V52Z" fill="#707070"/>
<g id="Group_6" filter="url(#filter2_d_9_449)">
<path id="Rectangle 86_2" d="M314 52.002C314 43.1655 306.837 36.002 298 36.002C289.163 36.002 282 43.1655 282 52.002V174.002C282 182.839 289.163 190.002 298 190.002C306.837 190.002 314 182.839 314 174.002V52.002Z" fill="#707070"/>
</g>
</g>
<g id="Group_7">
<path id="Rectangle 87" d="M339 62.5C339 55.5964 333.404 50 326.5 50C319.596 50 314 55.5964 314 62.5V162.5C314 169.404 319.596 175 326.5 175C333.404 175 339 169.404 339 162.5V62.5Z" fill="#707070"/>
<g id="Group_8" filter="url(#filter3_d_9_449)">
<path id="Rectangle 87_2" d="M339 62.502C339 55.5985 333.404 50.002 326.5 50.002C319.596 50.002 314 55.5985 314 62.502V162.502C314 169.406 319.596 175.002 326.5 175.002C333.404 175.002 339 169.406 339 162.502V62.502Z" fill="#707070"/>
</g>
</g>
<g id="Group_9">
<path id="Rectangle 88" d="M73 63.5C73 56.0442 66.9558 50 59.5 50C52.0442 50 46 56.0442 46 63.5V161.5C46 168.956 52.0442 175 59.5 175C66.9558 175 73 168.956 73 161.5V63.5Z" fill="#707070"/>
<g id="Group_10" filter="url(#filter4_d_9_449)">
<path id="Rectangle 88_2" d="M73 63.502C73 56.0462 66.9558 50.002 59.5 50.002C52.0442 50.002 46 56.0462 46 63.502V161.502C46 168.958 52.0442 175.002 59.5 175.002C66.9558 175.002 73 168.958 73 161.502V63.502Z" fill="#707070"/>
</g>
</g>
<g id="Group_11">
<path id="Rectangle 89" d="M359 77C359 71.4772 354.523 67 349 67C343.477 67 339 71.4772 339 77V148C339 153.523 343.477 158 349 158C354.523 158 359 153.523 359 148V77Z" fill="#707070"/>
<g id="Group_12" filter="url(#filter5_d_9_449)">
<path id="Rectangle 89_2" d="M359 77.002C359 71.4792 354.523 67.002 349 67.002C343.477 67.002 339 71.4792 339 77.002V148.002C339 153.525 343.477 158.002 349 158.002C354.523 158.002 359 153.525 359 148.002V77.002Z" fill="#707070"/>
</g>
</g>
<g id="Group_13">
<path id="Rectangle 90" d="M46 76C46 71.0294 41.9706 67 37 67C32.0294 67 28 71.0294 28 76V149C28 153.971 32.0294 158 37 158C41.9706 158 46 153.971 46 149V76Z" fill="#707070"/>
<g id="Group_14" filter="url(#filter6_d_9_449)">
<path id="Rectangle 90_2" d="M46 76.002C46 71.0315 41.9706 67.002 37 67.002C32.0294 67.002 28 71.0315 28 76.002V149.002C28 153.973 32.0294 158.002 37 158.002C41.9706 158.002 46 153.973 46 149.002V76.002Z" fill="#707070"/>
</g>
</g>
<g id="Group_15">
<path id="Rectangle 91" d="M359 98H364.88C366.866 98 368.832 98.3911 370.666 99.1509C372.501 99.9108 374.167 101.025 375.571 102.429C376.975 103.833 378.089 105.499 378.849 107.334C379.609 109.168 380 111.134 380 113.12C380 116.536 378.643 119.812 376.228 122.228C373.812 124.643 370.536 126 367.12 126H359V98Z" fill="#707070"/>
<g id="Group_16" filter="url(#filter7_d_9_449)">
<path id="Rectangle 91_2" d="M359 98.002H364.88C366.866 98.002 368.832 98.3931 370.666 99.153C372.501 99.9128 374.167 101.027 375.571 102.431C376.975 103.835 378.089 105.501 378.849 107.336C379.609 109.17 380 111.136 380 113.122C380 116.538 378.643 119.814 376.228 122.23C373.812 124.645 370.536 126.002 367.12 126.002H359V98.002Z" fill="#707070"/>
</g>
</g>
<g id="Group_17">
<path id="Rectangle 92" d="M21.12 98H28V126H18.88C15.464 126 12.1879 124.643 9.77246 122.228C7.357 119.812 6 116.536 6 113.12V113.12C6 109.11 7.593 105.264 10.4285 102.429C13.2641 99.593 17.1099 98 21.12 98V98Z" fill="#707070"/>
<g id="Group_18" filter="url(#filter8_d_9_449)">
<path id="Rectangle 92_2" d="M21.12 98.002H28V126.002H18.88C15.464 126.002 12.1879 124.645 9.77246 122.23C7.357 119.814 6 116.538 6 113.122V113.122C6 109.112 7.593 105.266 10.4285 102.431C13.2641 99.595 17.1099 98.002 21.12 98.002V98.002Z" fill="#707070"/>
</g>
</g>
</g>
<path id="Rectangle 93" d="M82 57.5C82 56.1193 80.8807 55 79.5 55C78.1193 55 77 56.1193 77 57.5V78.5C77 79.8807 78.1193 81 79.5 81C80.8807 81 82 79.8807 82 78.5V57.5Z" fill="#707070"/>
<path id="Rectangle 94" d="M55 71C55 69.8954 54.1046 69 53 69C51.8954 69 51 69.8954 51 71V92C51 93.1046 51.8954 94 53 94C54.1046 94 55 93.1046 55 92V71Z" fill="#707070"/>
<path id="Rectangle 95" d="M82 87.5C82 86.1193 80.8807 85 79.5 85C78.1193 85 77 86.1193 77 87.5V91.5C77 92.8807 78.1193 94 79.5 94C80.8807 94 82 92.8807 82 91.5V87.5Z" fill="#707070"/>
<path id="Rectangle 96" d="M310 57C310 55.8954 309.105 55 308 55C306.895 55 306 55.8954 306 57V79C306 80.1046 306.895 81 308 81C309.105 81 310 80.1046 310 79V57Z" fill="#707070"/>
<path id="Rectangle 97" d="M337 65.5C337 64.1193 335.881 63 334.5 63C333.119 63 332 64.1193 332 65.5V87.5C332 88.8807 333.119 90 334.5 90C335.881 90 337 88.8807 337 87.5V65.5Z" fill="#707070"/>
<path id="Rectangle 98" d="M310 88C310 86.8954 309.105 86 308 86C306.895 86 306 86.8954 306 88V93C306 94.1046 306.895 95 308 95C309.105 95 310 94.1046 310 93V88Z" fill="#707070"/>
</g>
<defs>
<filter id="filter0_d_9_449" x="99" y="62.002" width="189" height="64" filterUnits="userSpaceOnUse" color-interpolation-filters="sRGB">
<feFlood flood-opacity="0" result="BackgroundImageFix"/>
<feColorMatrix in="SourceAlpha" type="matrix" values="0 0 0 0 0 0 0 0 0 0 0 0 0 0 0 0 0 0 127 0" result="hardAlpha"/>
<feOffset dy="-30"/>
<feGaussianBlur stdDeviation="3"/>
<feColorMatrix type="matrix" values="0 0 0 0 0.14902 0 0 0 0 0.14902 0 0 0 0 0.14902 0 0 0 0.059 0"/>
<feBlend mode="normal" in2="BackgroundImageFix" result="effect1_dropShadow_9_449"/>
<feBlend mode="normal" in="SourceGraphic" in2="effect1_dropShadow_9_449" result="shape"/>
</filter>
<filter id="filter1_d_9_449" x="67" y="0.00201416" width="44" height="190" filterUnits="userSpaceOnUse" color-interpolation-filters="sRGB">
<feFlood flood-opacity="0" result="BackgroundImageFix"/>
<feColorMatrix in="SourceAlpha" type="matrix" values="0 0 0 0 0 0 0 0 0 0 0 0 0 0 0 0 0 0 127 0" result="hardAlpha"/>
<feOffset dy="-30"/>
<feGaussianBlur stdDeviation="3"/>
<feColorMatrix type="matrix" values="0 0 0 0 0 0 0 0 0 0 0 0 0 0 0 0 0 0 0.102 0"/>
<feBlend mode="normal" in2="BackgroundImageFix" result="effect1_dropShadow_9_449"/>
<feBlend mode="normal" in="SourceGraphic" in2="effect1_dropShadow_9_449" result="shape"/>
</filter>
<filter id="filter2_d_9_449" x="276" y="0.00201416" width="44" height="190" filterUnits="userSpaceOnUse" color-interpolation-filters="sRGB">
<feFlood flood-opacity="0" result="BackgroundImageFix"/>
<feColorMatrix in="SourceAlpha" type="matrix" values="0 0 0 0 0 0 0 0 0 0 0 0 0 0 0 0 0 0 127 0" result="hardAlpha"/>
<feOffset dy="-30"/>
<feGaussianBlur stdDeviation="3"/>
<feColorMatrix type="matrix" values="0 0 0 0 0 0 0 0 0 0 0 0 0 0 0 0 0 0 0.102 0"/>
<feBlend mode="normal" in2="BackgroundImageFix" result="effect1_dropShadow_9_449"/>
<feBlend mode="normal" in="SourceGraphic" in2="effect1_dropShadow_9_449" result="shape"/>
</filter>
<filter id="filter3_d_9_449" x="308" y="14.002" width="37" height="161" filterUnits="userSpaceOnUse" color-interpolation-filters="sRGB">
<feFlood flood-opacity="0" result="BackgroundImageFix"/>
<feColorMatrix in="SourceAlpha" type="matrix" values="0 0 0 0 0 0 0 0 0 0 0 0 0 0 0 0 0 0 127 0" result="hardAlpha"/>
<feOffset dy="-30"/>
<feGaussianBlur stdDeviation="3"/>
<feColorMatrix type="matrix" values="0 0 0 0 0 0 0 0 0 0 0 0 0 0 0 0 0 0 0.102 0"/>
<feBlend mode="normal" in2="BackgroundImageFix" result="effect1_dropShadow_9_449"/>
<feBlend mode="normal" in="SourceGraphic" in2="effect1_dropShadow_9_449" result="shape"/>
</filter>
<filter id="filter4_d_9_449" x="40" y="14.002" width="39" height="161" filterUnits="userSpaceOnUse" color-interpolation-filters="sRGB">
<feFlood flood-opacity="0" result="BackgroundImageFix"/>
<feColorMatrix in="SourceAlpha" type="matrix" values="0 0 0 0 0 0 0 0 0 0 0 0 0 0 0 0 0 0 127 0" result="hardAlpha"/>
<feOffset dy="-30"/>
<feGaussianBlur stdDeviation="3"/>
<feColorMatrix type="matrix" values="0 0 0 0 0 0 0 0 0 0 0 0 0 0 0 0 0 0 0.102 0"/>
<feBlend mode="normal" in2="BackgroundImageFix" result="effect1_dropShadow_9_449"/>
<feBlend mode="normal" in="SourceGraphic" in2="effect1_dropShadow_9_449" result="shape"/>
</filter>
<filter id="filter5_d_9_449" x="333" y="31.002" width="32" height="127" filterUnits="userSpaceOnUse" color-interpolation-filters="sRGB">
<feFlood flood-opacity="0" result="BackgroundImageFix"/>
<feColorMatrix in="SourceAlpha" type="matrix" values="0 0 0 0 0 0 0 0 0 0 0 0 0 0 0 0 0 0 127 0" result="hardAlpha"/>
<feOffset dy="-30"/>
<feGaussianBlur stdDeviation="3"/>
<feColorMatrix type="matrix" values="0 0 0 0 0 0 0 0 0 0 0 0 0 0 0 0 0 0 0.102 0"/>
<feBlend mode="normal" in2="BackgroundImageFix" result="effect1_dropShadow_9_449"/>
<feBlend mode="normal" in="SourceGraphic" in2="effect1_dropShadow_9_449" result="shape"/>
</filter>
<filter id="filter6_d_9_449" x="22" y="31.002" width="30" height="127" filterUnits="userSpaceOnUse" color-interpolation-filters="sRGB">
<feFlood flood-opacity="0" result="BackgroundImageFix"/>
<feColorMatrix in="SourceAlpha" type="matrix" values="0 0 0 0 0 0 0 0 0 0 0 0 0 0 0 0 0 0 127 0" result="hardAlpha"/>
<feOffset dy="-30"/>
<feGaussianBlur stdDeviation="3"/>
<feColorMatrix type="matrix" values="0 0 0 0 0 0 0 0 0 0 0 0 0 0 0 0 0 0 0.102 0"/>
<feBlend mode="normal" in2="BackgroundImageFix" result="effect1_dropShadow_9_449"/>
<feBlend mode="normal" in="SourceGraphic" in2="effect1_dropShadow_9_449" result="shape"/>
</filter>
<filter id="filter7_d_9_449" x="353" y="62.002" width="33" height="64" filterUnits="userSpaceOnUse" color-interpolation-filters="sRGB">
<feFlood flood-opacity="0" result="BackgroundImageFix"/>
<feColorMatrix in="SourceAlpha" type="matrix" values="0 0 0 0 0 0 0 0 0 0 0 0 0 0 0 0 0 0 127 0" result="hardAlpha"/>
<feOffset dy="-30"/>
<feGaussianBlur stdDeviation="3"/>
<feColorMatrix type="matrix" values="0 0 0 0 0.14902 0 0 0 0 0.14902 0 0 0 0 0.14902 0 0 0 0.059 0"/>
<feBlend mode="normal" in2="BackgroundImageFix" result="effect1_dropShadow_9_449"/>
<feBlend mode="normal" in="SourceGraphic" in2="effect1_dropShadow_9_449" result="shape"/>
</filter>
<filter id="filter8_d_9_449" x="0" y="62.002" width="34" height="64" filterUnits="userSpaceOnUse" color-interpolation-filters="sRGB">
<feFlood flood-opacity="0" result="BackgroundImageFix"/>
<feColorMatrix in="SourceAlpha" type="matrix" values="0 0 0 0 0 0 0 0 0 0 0 0 0 0 0 0 0 0 127 0" result="hardAlpha"/>
<feOffset dy="-30"/>
<feGaussianBlur stdDeviation="3"/>
<feColorMatrix type="matrix" values="0 0 0 0 0.14902 0 0 0 0 0.14902 0 0 0 0 0.14902 0 0 0 0.059 0"/>
<feBlend mode="normal" in2="BackgroundImageFix" result="effect1_dropShadow_9_449"/>
<feBlend mode="normal" in="SourceGraphic" in2="effect1_dropShadow_9_449" result="shape"/>
</filter>
</defs>
</svg>
