<svg xmlns="http://www.w3.org/2000/svg" xmlns:xlink="http://www.w3.org/1999/xlink" width="170" height="63.67" viewBox="0 0 170 63.67">
  <defs>
    <filter id="Ellipse_2" x="2.642" y="0" width="52.828" height="46.147" filterUnits="userSpaceOnUse">
      <feOffset dy="3" input="SourceAlpha"/>
      <feGaussianBlur stdDeviation="3" result="blur"/>
      <feFlood flood-opacity="0.161"/>
      <feComposite operator="in" in2="blur"/>
      <feComposite in="SourceGraphic"/>
    </filter>
    <filter id="Path_759" x="0.561" y="14.128" width="57.099" height="49.542" filterUnits="userSpaceOnUse">
      <feOffset dy="3" input="SourceAlpha"/>
      <feGaussianBlur stdDeviation="3" result="blur-2"/>
      <feFlood flood-opacity="0.161"/>
      <feComposite operator="in" in2="blur-2"/>
      <feComposite in="SourceGraphic"/>
    </filter>
  </defs>
  <g id="logo" transform="translate(-348 -6072.724)">
    <rect id="Rectangle_121" data-name="Rectangle 121" width="170" height="59" rx="20" transform="translate(348 6073)" fill="#abd9db"/>
    <g id="母鴨" transform="translate(355.289 6073)">
      <g id="鴨子" transform="translate(0 5.724)">
        <line id="Line_17" data-name="Line 17" y2="3.395" transform="translate(17.441 44.74)" fill="none" stroke="#574809" stroke-width="1"/>
        <line id="Line_21" data-name="Line 21" y2="3.395" transform="translate(26.86 44.74)" fill="none" stroke="#574809" stroke-width="1"/>
        <line id="Line_18" data-name="Line 18" x1="2.081" y2="1.643" transform="translate(15.141 47.916)" fill="none" stroke="#574809" stroke-width="1"/>
        <line id="Line_24" data-name="Line 24" x1="2.081" y2="1.643" transform="translate(24.56 47.916)" fill="none" stroke="#574809" stroke-width="1"/>
        <line id="Line_19" data-name="Line 19" y2="3.204" transform="translate(17.441 47.45)" fill="none" stroke="#574809" stroke-width="1"/>
        <line id="Line_22" data-name="Line 22" y2="3.204" transform="translate(26.86 47.45)" fill="none" stroke="#574809" stroke-width="1"/>
        <line id="Line_20" data-name="Line 20" x2="2.081" y2="1.424" transform="translate(17.66 47.916)" fill="none" stroke="#574809" stroke-width="1"/>
        <line id="Line_23" data-name="Line 23" x2="2.081" y2="1.424" transform="translate(27.079 47.916)" fill="none" stroke="#574809" stroke-width="1"/>
        <g transform="matrix(1, 0, 0, 1, -7.29, -6)" filter="url(#Ellipse_2)">
          <ellipse id="Ellipse_2-2" data-name="Ellipse 2" cx="17.414" cy="14.074" rx="17.414" ry="14.074" transform="translate(11.64 6)" fill="#ffd230"/>
        </g>
        <g transform="matrix(1, 0, 0, 1, -7.29, -6)" filter="url(#Path_759)">
          <path id="Path_759-2" data-name="Path 759" d="M19.55,0C30.347,0,39.1,7.061,39.1,15.771S30.347,31.542,19.55,31.542,0,24.481,0,15.771,8.753,0,19.55,0Z" transform="translate(9.56 20.13)" fill="#ffd230"/>
        </g>
        <path id="Polygon_1" data-name="Polygon 1" d="M5.257,0l5.257,4.819H0Z" transform="translate(16.51 9.638)" fill="#f70"/>
        <ellipse id="Ellipse_4" data-name="Ellipse 4" cx="1.533" cy="1.588" rx="1.533" ry="1.588" transform="translate(12.677 8.871)"/>
        <ellipse id="Ellipse_5" data-name="Ellipse 5" cx="1.533" cy="1.588" rx="1.533" ry="1.588" transform="translate(28.339 8.871)"/>
        <path id="Path_10" data-name="Path 10" d="M12.023,0a17.947,17.947,0,0,1,2.285,7.8,7.064,7.064,0,0,1-7.064,7.064A12.964,12.964,0,0,1,0,12.106s4.192-3.93,5.958-5.7S12.023,0,12.023,0Z" transform="matrix(-0.454, 0.891, -0.891, -0.454, 19.741, 26.899)" fill="coral"/>
        <path id="Path_11" data-name="Path 11" d="M12.023,14.865a17.947,17.947,0,0,0,2.285-7.8A7.064,7.064,0,0,0,7.245,0,12.964,12.964,0,0,0,0,2.759s4.192,3.93,5.958,5.7S12.023,14.865,12.023,14.865Z" transform="translate(38.529 20.15) rotate(70)" fill="coral"/>
      </g>
      <g id="Group_23" data-name="Group 23" transform="translate(27.083) rotate(16)">
        <g id="Group_22" data-name="Group 22" transform="translate(0 0)">
          <path id="Union_1" data-name="Union 1" d="M9.265,11.073a2.824,2.824,0,0,1-.675-.2,4.019,4.019,0,0,1-.7-.39,4.883,4.883,0,0,1-.68-.568,5,5,0,0,1-.386-.434,4.555,4.555,0,0,1-.314-.45,3.913,3.913,0,0,1-.238-.453c-.044-.1-.082-.2-.114-.3-.032.1-.071.2-.114.3a3.915,3.915,0,0,1-.238.453,4.558,4.558,0,0,1-.314.45,5.005,5.005,0,0,1-.386.434,4.873,4.873,0,0,1-.7.58,3.976,3.976,0,0,1-.719.392A2.746,2.746,0,0,1,3,11.08a1.636,1.636,0,0,1-.607-.025L3.5,9.134l-1.864,1.16a1.641,1.641,0,0,1-.024-.607A2.751,2.751,0,0,1,1.8,9a3.978,3.978,0,0,1,.392-.718,4.873,4.873,0,0,1,.579-.7A5,5,0,0,1,3.2,7.2a4.557,4.557,0,0,1,.45-.314,3.971,3.971,0,0,1,.382-.206l-.005-.025a3.178,3.178,0,0,1-.426.006A3.912,3.912,0,0,1,3.1,6.6a4.557,4.557,0,0,1-.533-.132,5,5,0,0,1-.544-.205,4.888,4.888,0,0,1-.763-.424,4.044,4.044,0,0,1-.61-.506,2.872,2.872,0,0,1-.428-.55A1.766,1.766,0,0,1,0,4.228l2.424.38L.468,3.129a1.715,1.715,0,0,1,.559-.221,2.824,2.824,0,0,1,.7-.057,4.019,4.019,0,0,1,.795.113,4.883,4.883,0,0,1,.838.287,5,5,0,0,1,.516.267,4.557,4.557,0,0,1,.454.307q.1.081.2.166-.026-.088-.047-.178a4.556,4.556,0,0,1-.1-.54,5,5,0,0,1-.033-.58,4.887,4.887,0,0,1,.077-.87,4.044,4.044,0,0,1,.214-.763A2.872,2.872,0,0,1,4.976.445,1.766,1.766,0,0,1,5.395.019l.639,2.369L6.589,0a1.716,1.716,0,0,1,.429.421,2.825,2.825,0,0,1,.337.618,4.019,4.019,0,0,1,.22.772,4.883,4.883,0,0,1,.079.882,5,5,0,0,1-.033.58,4.556,4.556,0,0,1-.1.54l-.009.038q.072-.061.149-.12a4.557,4.557,0,0,1,.454-.307,5,5,0,0,1,.516-.267,4.887,4.887,0,0,1,.826-.284,4.045,4.045,0,0,1,.784-.115,2.873,2.873,0,0,1,.7.049,1.766,1.766,0,0,1,.559.209L9.6,4.564,12,4.1a1.715,1.715,0,0,1-.21.563,2.824,2.824,0,0,1-.427.559,4.018,4.018,0,0,1-.615.515,4.882,4.882,0,0,1-.774.431,5,5,0,0,1-.544.205,4.553,4.553,0,0,1-.533.132,3.912,3.912,0,0,1-.508.06,3.21,3.21,0,0,1-.395,0H8q.1.037.206.083a3.913,3.913,0,0,1,.453.238,4.556,4.556,0,0,1,.45.314,5,5,0,0,1,.434.386,4.888,4.888,0,0,1,.561.669,4.044,4.044,0,0,1,.388.691,2.872,2.872,0,0,1,.2.667,1.766,1.766,0,0,1,.005.6L8.57,8.986l1.3,2.081a1.512,1.512,0,0,1-.3.029A1.977,1.977,0,0,1,9.265,11.073Z" transform="matrix(0.978, 0.208, -0.208, 0.978, 2.307, 0)" fill="#ffb8b8"/>
        </g>
        <circle id="Ellipse_46" data-name="Ellipse 46" cx="2.026" cy="2.026" r="2.026" transform="translate(5.065 5.135)" fill="#fff"/>
      </g>
      <ellipse id="Ellipse_49" data-name="Ellipse 49" cx="3.286" cy="1.752" rx="3.286" ry="1.752" transform="translate(27.079 19.879)" fill="rgba(188,13,43,0.22)" opacity="0.57"/>
      <ellipse id="Ellipse_50" data-name="Ellipse 50" cx="3.286" cy="1.752" rx="3.286" ry="1.752" transform="translate(9.391 19.879)" fill="rgba(188,13,43,0.22)" opacity="0.57"/>
    </g>
    <text id="Duckside" transform="translate(401 6114)" fill="#4e2a2a" font-size="25" font-family="HelveticaNeue-Bold, Helvetica Neue" font-weight="700"><tspan x="0" y="0">Duckside</tspan></text>
  </g>
</svg>
